<svg width="19" height="19" viewBox="0 0 19 19" fill="none" xmlns="http://www.w3.org/2000/svg">
<path d="M8.60586 13.2288L2.91061 6.71888C2.23848 5.95294 2.78473 4.75 3.80479 4.75H15.1953C15.4236 4.7498 15.6471 4.81542 15.8391 4.93898C16.031 5.06254 16.1833 5.23882 16.2776 5.4467C16.372 5.65458 16.4044 5.88525 16.3711 6.11109C16.3377 6.33692 16.2399 6.54836 16.0895 6.72006L10.3942 13.2276C10.2828 13.3551 10.1453 13.4573 9.99109 13.5274C9.83686 13.5974 9.66943 13.6337 9.50004 13.6337C9.33066 13.6337 9.16323 13.5974 9.009 13.5274C8.85477 13.4573 8.71732 13.3551 8.60586 13.2276V13.2288Z" fill="black"/>
</svg>
